<svg xmlns="http://www.w3.org/2000/svg" width="500" height="500" data-name="Layer 1" viewBox="0 0 500 500" id="3-star-medal"><path fill="#b70445" d="M252.8362,336.7826c-9.7832,0-17.49-5.92-23.6838-10.676-3.3214-2.55-6.7552-5.1882-9.0991-5.8147-2.5994-.6956-7.0563-.12-11.3659.4379-8.0111,1.0345-17.0909,2.2085-25.2936-2.5382-8.3045-4.8051-11.9882-13.6956-14.9486-20.8395-1.64-3.9572-3.3349-8.0489-5.1518-9.8651-1.817-1.8177-5.9087-3.5129-9.8651-5.1518-7.1433-2.96-16.0337-6.6442-20.8381-14.9472-4.7453-8.2027-3.5727-17.2825-2.5368-25.2936.5568-4.31,1.1328-8.7672.4386-11.3645-.6265-2.3439-3.2637-5.7777-5.814-9.0984-4.7567-6.1941-10.6767-13.9-10.6767-23.6838s5.9193-17.49,10.676-23.6838c2.551-3.3206,5.1882-6.7552,5.8147-9.099.6949-2.598.1189-7.0549-.4378-11.3645-1.0353-8.0119-2.2086-17.0917,2.5381-25.295,4.8044-8.3038,13.6956-11.9882,20.84-14.9479,3.9565-1.64,8.0482-3.3356,9.8651-5.1519s3.5122-5.9086,5.1519-9.8644c2.96-7.1432,6.6441-16.0343,14.9486-20.838,8.2033-4.7467,17.2831-3.5734,25.2936-2.5368,4.31.5561,8.7665,1.1321,11.3645.4386,2.3431-.6265,5.7769-3.2637,9.0976-5.8147,6.1927-4.7581,13.9-10.6775,23.6831-10.6775s17.49,5.9194,23.6838,10.6761c3.3214,2.55,6.7552,5.1881,9.099,5.8147,2.5973.6956,7.0543.1182,11.3653-.4379,8.0111-1.0338,17.0916-2.2078,25.2943,2.5382,8.3044,4.8051,11.9882,13.6955,14.9486,20.84,1.64,3.9571,3.3349,8.0488,5.1518,9.8651s5.9087,3.5129,9.8651,5.1518c7.1433,2.96,16.0337,6.6442,20.8381,14.9472,4.746,8.2027,3.5727,17.2825,2.5375,25.2936-.5568,4.31-1.1328,8.7665-.4386,11.3645.6265,2.3438,3.2637,5.7777,5.8147,9.0983,4.7559,6.1942,10.6753,13.9006,10.6753,23.6839s-5.9194,17.49-10.6761,23.6838c-2.551,3.3206-5.1881,6.7552-5.8154,9.099-.6949,2.598-.1189,7.0549.4379,11.3645,1.0352,8.0119,2.2085,17.0917-2.5382,25.295-4.8044,8.3038-13.6955,11.9882-20.8395,14.9479-3.9564,1.64-8.0481,3.3356-9.8658,5.1518s-3.5122,5.9087-5.1518,9.8644c-2.96,7.1433-6.6442,16.0344-14.9486,20.8381-8.2027,4.746-17.2832,3.5734-25.2936,2.5375-4.31-.5561-8.7665-1.1321-11.3645-.4386-2.3431.6265-5.777,3.2637-9.0976,5.8147-6.1914,4.7567-13.8985,10.6767-23.6817,10.6767Z"></path><path fill="#ff0b57" d="M252.8362,325.5719c-8.9933,0-16.078-5.4421-21.7714-9.814-3.0531-2.3444-6.21-4.7692-8.3643-5.3452-2.3895-.6394-6.4866-.11-10.4481.4025-7.3643.951-15.7109,2.03-23.2512-2.3332-7.6339-4.4171-11.02-12.59-13.7415-19.1567-1.5073-3.6376-3.0656-7.3989-4.7359-9.0685s-5.4315-3.2292-9.0685-4.7358c-6.5664-2.7207-14.7389-6.1077-19.1554-13.74-4.3621-7.54-3.2842-15.8869-2.3319-23.2512.5118-3.9622,1.0413-8.0593.4032-10.4469-.576-2.1545-3-5.3111-5.3445-8.3636-4.3726-5.694-9.8147-12.7781-9.8147-21.7714s5.4414-16.078,9.814-21.7713c2.345-3.0525,4.7692-6.21,5.3452-8.3643.6387-2.3882.1093-6.4853-.4025-10.4469-.9517-7.3649-2.03-15.7115,2.3332-23.2524,4.4164-7.6333,12.59-11.02,19.1567-13.7409,3.637-1.5073,7.3983-3.0663,9.0685-4.7358s3.2286-5.4316,4.7359-9.0679c2.7213-6.5664,6.1076-14.74,13.7415-19.1554,7.5409-4.3634,15.8875-3.2849,23.2511-2.3319,3.9623.5111,8.0587,1.0406,10.4469.4031,2.1539-.5759,5.3105-3,8.363-5.3451,5.6927-4.3739,12.7774-9.8153,21.7707-9.8153s16.078,5.4414,21.7714,9.814c3.0531,2.3443,6.21,4.7692,8.3643,5.3451,2.3875.6394,6.4846.1087,10.4475-.4025,7.3642-.95,15.7115-2.0295,23.2518,2.3332,7.6339,4.4171,11.02,12.59,13.7415,19.1568,1.5073,3.6376,3.0656,7.3989,4.7358,9.0685s5.4316,3.2292,9.0685,4.7358c6.5665,2.7207,14.739,6.1076,19.1555,13.74,4.3627,7.54,3.2842,15.8869,2.3325,23.2512-.5118,3.9622-1.0413,8.0586-.4031,10.4468.5759,2.1546,3,5.3112,5.3451,8.3637,4.372,5.694,9.8133,12.7781,9.8133,21.7713s-5.4413,16.0781-9.8139,21.7714c-2.3451,3.0525-4.7692,6.21-5.3458,8.3643-.6388,2.3882-.1093,6.4853.4025,10.4469.9516,7.3649,2.03,15.7115-2.3333,23.2524-4.4164,7.6333-12.59,11.02-19.1567,13.7409-3.637,1.5073-7.3983,3.0662-9.0692,4.7358s-3.2285,5.4316-4.7358,9.0679c-2.7213,6.5664-6.1076,14.74-13.7415,19.1554-7.54,4.3628-15.8876,3.2848-23.2512,2.3326-3.9622-.5112-8.0586-1.0407-10.4468-.4032-2.1539.576-5.31,3-8.363,5.3452-5.6914,4.3726-12.7761,9.8146-21.7694,9.8146Z"></path><path fill="#ff0b57" d="M291.0433,305.4342H252.3457v163.22L282.96,488.6362a8.303,8.303,0,0,0,12.8414-6.9529V310.1919A4.7576,4.7576,0,0,0,291.0433,305.4342Z"></path><path fill="#b70445" d="M252.3456 305.4342H213.648a4.7576 4.7576 0 00-4.7577 4.7577V481.6832a8.3031 8.3031 0 0012.8414 6.953l30.6139-19.9819h0v-163.22zM258.6867 302.2761l25.7962-11.0878 46.7663 108.8041-14.6823 22.0917a6.0245 6.0245 0 01-10.5524-.9555L256.8784 306.8108A3.452 3.452 0 01258.6867 302.2761z"></path><path fill="#ff0b57" d="M284.483 291.1883l25.7962-11.0877a3.452 3.452 0 014.5347 1.8084L363.95 396.2266a6.0246 6.0246 0 01-6.568 8.3144l-26.1328-4.5486h0L284.4829 291.1883zM246.0046 302.2761l-25.7962-11.0878L173.4421 399.9924l14.6823 22.0917a6.0245 6.0245 0 0010.5524-.9555l49.1361-114.3178A3.452 3.452 0 00246.0046 302.2761z"></path><path fill="#b70445" d="M220.2083,291.1883l-25.7962-11.0877a3.452,3.452,0,0,0-4.5347,1.8084L140.7413,396.2266a6.0246,6.0246,0,0,0,6.568,8.3144l26.1328-4.5486h0l46.7663-108.8041Z"></path><polygon fill="#000c33" points="301.951 112.646 203.426 112.646 154.163 197.971 203.426 283.296 301.951 283.296 351.213 197.971 301.951 112.646"></polygon><polygon fill="none" points="211.14 126.008 169.592 197.971 211.14 269.934 294.236 269.934 335.784 197.971 294.236 126.008 211.14 126.008"></polygon><polygon fill="#efa459" points="294.236 126.008 309.665 99.284 195.711 99.284 211.14 126.008 294.236 126.008"></polygon><polygon fill="#e5893c" points="335.784 197.971 366.642 197.971 309.665 99.284 294.236 126.008 335.784 197.971"></polygon><polygon fill="#cc7629" points="335.784 197.971 294.236 269.934 309.665 296.658 366.642 197.971 335.784 197.971"></polygon><polygon fill="#e5893c" points="211.14 269.934 195.711 296.658 309.665 296.658 294.236 269.934 211.14 269.934"></polygon><polygon fill="#efa459" points="169.592 197.971 138.735 197.971 195.711 296.658 211.14 269.934 169.592 197.971"></polygon><polygon fill="#ffe8b6" points="211.14 126.008 195.711 99.284 138.735 197.971 169.592 197.971 211.14 126.008"></polygon><circle cx="252.371" cy="197.948" r="59.091" fill="#000c33"></circle><path fill="#f79f3e" d="M210.7743,198.178,187.1,230.5175a5.2011,5.2011,0,0,0-.3117,5.75l65.973-38.09Z"></path><path fill="#ffe8b6" d="M186.7883,160.0887a5.2006,5.2006,0,0,0,.3118,5.75l23.6742,32.3394h41.9871Z"></path><path fill="#ffe8b6" d="M252.7976,198.1153l-.0329-76.1159a5.2,5.2,0,0,0-4.8271,3.1446l-16.17,36.6721,20.9935,36.3619Z"></path><polygon fill="#ffe8b6" points="252.761 198.178 252.798 198.157 252.798 198.115 252.761 198.178"></polygon><path fill="#f79f3e" d="M231.7679,161.8161l-39.8439-4.3326a5.2014,5.2014,0,0,0-5.1357,2.6052l65.9731,38.0893Z"></path><polygon fill="#ffe8b6" points="252.798 198.178 252.798 198.157 252.761 198.178 252.798 198.178"></polygon><polygon fill="#ffe8b6" points="252.798 198.199 252.798 198.178 252.761 198.178 252.798 198.199"></polygon><polygon fill="#ffe8b6" points="252.798 198.241 252.798 198.199 252.761 198.178 252.798 198.241"></polygon><path fill="#f79f3e" d="M252.7614,198.178,231.7679,234.54l16.17,36.6722a5.1993,5.1993,0,0,0,4.893,3.14l-.0328-76.1116Z"></path><path fill="#ffe8b6" d="M186.7884 236.2675a5.201 5.201 0 005.1355 2.6051l39.844-4.3327 20.9935-36.3619zM252.8305 274.3525a5.1946 5.1946 0 004.7547-3.14l16.17-36.6722-20.9572-36.299z"></path><path fill="#f79f3e" d="M252.7977 198.2409l20.9572 36.299 39.8439 4.3327a5.2005 5.2005 0 005.1354-2.605L252.7976 198.199zM273.7549 161.8161l-16.17-36.6719a5.2 5.2 0 00-4.82-3.1448l.0329 76.1159z"></path><path fill="#ffe8b6" d="M252.7976,198.1571l65.9364-38.0684a5.2,5.2,0,0,0-5.1355-2.6051l-39.8436,4.3325-20.9573,36.2992Z"></path><path fill="#f79f3e" d="M252.7976,198.1571l0,.0208h41.9507l23.6738-32.3393a5.2,5.2,0,0,0,.3117-5.75Z"></path><path fill="#ffe8b6" d="M252.7976,198.199l65.9366,38.0686a5.2007,5.2007,0,0,0-.3118-5.75l-23.6739-32.34H252.7978Z"></path><circle cx="252.694" cy="198.241" r="19.108" fill="#ffe8b6"></circle><polygon fill="#ffe8b6" points="108.232 283.296 176.214 244.047 152.945 222.217 108.232 283.296"></polygon><polygon fill="#efa459" points="183.485 275.113 176.214 244.047 108.232 283.296 183.485 275.113"></polygon><polygon fill="#e5893c" points="350.882 169.544 388.989 117.489 388.989 117.489 329.869 151.622 350.882 169.544"></polygon><polygon fill="#efa459" points="329.869 151.622 388.989 117.489 324.854 124.463 329.869 151.622"></polygon><polygon fill="#ffe8b6" points="154.073 172.928 176.778 152.075 111.011 114.105 154.073 172.928"></polygon><polygon fill="#efa459" points="111.011 114.105 176.778 152.075 183.485 121.986 111.011 114.105"></polygon><polygon fill="#cc7629" points="352.01 222.534 330.433 241.434 391.768 276.846 352.01 222.534"></polygon><polygon fill="#e5893c" points="391.768 276.846 330.433 241.434 324.854 269.569 391.768 276.846"></polygon><path fill="#ffcd52" d="M256.1443,12.0565l11.8919,24.0953,26.5908,3.8639a3.6892,3.6892,0,0,1,2.0446,6.2926L277.43,65.0636l4.5423,26.4833a3.6891,3.6891,0,0,1-5.3527,3.889L252.836,82.9322,229.0525,95.4359a3.6891,3.6891,0,0,1-5.3526-3.889l4.5423-26.4833L209.0007,46.3081a3.6892,3.6892,0,0,1,2.0447-6.2926l26.5908-3.8639,11.8917-24.0951A3.6891,3.6891,0,0,1,256.1443,12.0565Z"></path><path fill="#f79f3e" d="M268.0358,36.1518,256.1443,12.0565A3.646,3.646,0,0,0,252.8362,10V55.6187Z"></path><path fill="#f79f3e" d="M277.43 65.0636l19.2413-18.7557a3.6424 3.6424 0 00.948-3.7309L252.836 55.6185zM280.5157 95.1465l-27.68-39.528V82.9322L276.62 95.4359A3.646 3.646 0 00280.5157 95.1465z"></path><path fill="#f79f3e" d="M252.836 55.6185l-24.594 9.4451L223.7 91.5469a3.6454 3.6454 0 001.4565 3.6zM208.0527 42.5771L252.836 55.6185l-15.2-19.4669-26.5908 3.8641a3.6459 3.6459 0 00-2.9927 2.5614z"></path><path fill="#ffcd52" d="M185.8134,40.2528l8.3718,16.9629,18.72,2.72a2.5972,2.5972,0,0,1,1.4394,4.43L200.7984,77.5693l3.1977,18.644a2.5971,2.5971,0,0,1-3.7682,2.7378l-16.7435-8.8025-16.7433,8.8025a2.5971,2.5971,0,0,1-3.7681-2.7378l3.1976-18.644L152.6249,64.3656a2.5972,2.5972,0,0,1,1.4394-4.43l18.72-2.72,8.3717-16.9628A2.5971,2.5971,0,0,1,185.8134,40.2528Z"></path><path fill="#f79f3e" d="M194.185,57.2157l-8.3716-16.9629a2.5665,2.5665,0,0,0-2.3288-1.4477V70.92Z"></path><path fill="#f79f3e" d="M200.7984 77.5693L214.344 64.3655a2.5646 2.5646 0 00.6675-2.6266L183.4844 70.92zM202.9706 98.7474L183.4844 70.92V90.1486l16.7434 8.8025A2.5668 2.5668 0 00202.9706 98.7474zM183.4844 70.92l-17.3139 6.6493-3.1975 18.644a2.5664 2.5664 0 001.0253 2.5341zM151.9574 61.739l31.527 9.181L172.7839 57.2156l-18.72 2.72a2.567 2.567 0 00-2.1069 1.8032z"></path><path fill="#ffcd52" d="M321.7828,40.2528l8.3718,16.9629,18.72,2.72a2.5972,2.5972,0,0,1,1.44,4.43L336.7678,77.5693l3.1977,18.644a2.5971,2.5971,0,0,1-3.7682,2.7378l-16.7435-8.8025-16.7433,8.8025a2.5971,2.5971,0,0,1-3.7682-2.7378l3.1977-18.644L288.5943,64.3656a2.5971,2.5971,0,0,1,1.4394-4.43l18.72-2.72,8.3717-16.9628A2.5971,2.5971,0,0,1,321.7828,40.2528Z"></path><path fill="#f79f3e" d="M330.1544,57.2157l-8.3716-16.9629a2.5666,2.5666,0,0,0-2.3288-1.4477V70.92Z"></path><path fill="#f79f3e" d="M336.7678 77.5693l13.5456-13.2038a2.5643 2.5643 0 00.6674-2.6266L319.4538 70.92zM338.94 98.7474L319.4538 70.92V90.1486l16.7434 8.8025A2.5668 2.5668 0 00338.94 98.7474zM319.4538 70.92L302.14 77.5693l-3.1976 18.644a2.5667 2.5667 0 001.0253 2.5341zM287.9268 61.739l31.527 9.181-10.7-13.7044-18.72 2.72a2.567 2.567 0 00-2.1069 1.8032z"></path></svg>