<svg xmlns="http://www.w3.org/2000/svg" viewBox="0 0 512 512" id="crown"><circle cx="256" cy="170.5" r="7.5"></circle><circle cx="256" cy="324.5" r="7.5"></circle><circle cx="468.87" cy="244.2" r="7.5"></circle><circle cx="43.13" cy="244.2" r="7.5"></circle><circle cx="371.81" cy="223.33" r="7.5"></circle><circle cx="140.19" cy="223.33" r="7.5"></circle><rect width="477" height="45" x="17.5" y="392.5" fill="#fed030" rx="22.5"></rect><path fill="#f8be32" d="M472 392.5h-15a22.5 22.5 0 0 1 22.5 22.5 22.5 22.5 0 0 1-22.5 22.5h15a22.5 22.5 0 0 0 22.5-22.5 22.5 22.5 0 0 0-22.5-22.5Z"></path><path fill="#fed030" d="M45.25 392.5q-9.37-52.1-18.77-104.19L7.5 201l67.75 28.5-.2.36a24 24 0 1 0 36.41 0l-.21-.36q6.72-38.7 13.45-77.41l45.55 65.41a31.45 31.45 0 0 0-1.34 13.63c2 15.63 15.62 23.73 17.22 24.65a36.35 36.35 0 0 0 38.63-1.78c15.73-11.12 15.13-30.24 15-32.31-.76-15.48-11.21-29.43-26.63-35.69l42.61-111.5h.52L298.84 186c-15.42 6.26-25.87 20.21-26.63 35.69-.1 2.07-.7 21.19 15 32.31a36.35 36.35 0 0 0 38.63 1.77c1.6-.92 15.22-9 17.22-24.65a31.45 31.45 0 0 0-1.34-13.63l45.55-65.41q6.72 38.7 13.45 77.41l-.21.36a24 24 0 1 0 36.41 0l-.2-.36L504.5 201l-19 87.36q-9.39 52.1-18.77 104.19Z"></path><path fill="#f8be32" d="M219.48 189.17a42 42 0 0 0-4.95-6.74c-.46 1.19-.91 2.39-1.37 3.58a46 46 0 0 1 6.32 3.16zm166.27 25.33-.21.36A24 24 0 0 0 396 253.22a24 24 0 0 1 4.52-23.36l.21-.36q-6.73-38.7-13.43-77.41-4.95 7.13-9.92 14.24zM283.84 171c-15.42 6.26-25.87 20.21-26.63 35.69-.1 2.07-.7 21.19 15 32.31a34.85 34.85 0 0 0 4.32 2.6 42.23 42.23 0 0 1-4.35-19.91c.76-15.48 11.21-29.43 26.63-35.69L256.26 74.5h-.52L251.36 86z"></path><path fill="#f8be32" d="M484.4 209.42q-6.94 32-13.88 63.89l-15.81 87.74A20 20 0 0 1 435 377.5H42.55l2.7 15h421.5l18.77-104.19 19-87.36zm-329.15-6.92a31.45 31.45 0 0 0-1.34 13.63c2 15.63 15.62 23.73 17.22 24.65.34.19.68.36 1 .54a29.84 29.84 0 0 1-3.25-10.19 31.45 31.45 0 0 1 1.34-13.63l-45.52-65.41-.91 5.23zM54.47 233.74a24 24 0 0 0 16.06 19.48 24 24 0 0 1 4.52-23.36l.2-.36L56 221.41a24 24 0 0 0-1.53 12.33z"></path><circle cx="256" cy="324" r="32.5" fill="#eb304a"></circle><path fill="#e4222e" d="M256 291.5a32.55 32.55 0 0 0-7.5.88 32.5 32.5 0 0 1 0 63.24 32.5 32.5 0 1 0 7.5-64.12Z"></path><circle cx="427" cy="324" r="15" fill="#eb304a"></circle><path fill="#e4222e" d="M427 309a14.94 14.94 0 0 0-3.23.36 15 15 0 0 1 0 29.28A15 15 0 1 0 427 309Z"></path><circle cx="85" cy="324" r="15" fill="#eb304a"></circle><path fill="#1cabe1" d="M166 357.79 140.19 324 166 290.21 191.81 324 166 357.79z"></path><path fill="#199ad5" d="m166 290.21-7.5 9.79 13.68 17.9a10 10 0 0 1 0 12.14L158.5 348l7.5 9.82L191.81 324Z"></path><path fill="#1cabe1" d="M346 357.79 320.19 324 346 290.21 371.81 324 346 357.79z"></path><path fill="#199ad5" d="m346 290.21-7.5 9.79 13.68 17.9a10 10 0 0 1 0 12.14L338.5 348l7.5 9.82L371.81 324Z"></path><circle cx="256" cy="170.5" r="7.5" fill="#eb304a"></circle><circle cx="256" cy="324.5" r="7.5" fill="#fff"></circle><circle cx="468.87" cy="244.2" r="7.5" fill="#eb304a"></circle><circle cx="43.13" cy="244.2" r="7.5" fill="#eb304a"></circle><circle cx="371.81" cy="223.33" r="7.5" fill="#1cabe1"></circle><circle cx="140.19" cy="223.33" r="7.5" fill="#1cabe1"></circle><path fill="#e4222e" d="M85 309a14.94 14.94 0 0 0-3.23.36 15 15 0 0 1 0 29.28A15 15 0 1 0 85 309Z"></path></svg>